<svg xmlns="http://www.w3.org/2000/svg" xmlns:xlink="http://www.w3.org/1999/xlink" width="128" height="128" viewBox="0 0 128 128"><defs><clipPath id="a"><rect width="128" height="128" fill="none"/></clipPath></defs><g clip-path="url(#a)"><rect width="128" height="128" fill="#d95032"/><g transform="translate(-4 -3)"><path d="M43,63.571H56.62c-1.565,6.323-6.381,9.849-13.738,9.849a15.49,15.49,0,1,1,0-30.974,15.915,15.915,0,0,1,10.34,3.8l6.546-7.389a26,26,0,0,0-16.885-6.2,25.284,25.284,0,1,0,0,50.56c14.512,0,24.26-9.863,24.26-24.539v-4.9H43Z" transform="translate(11 9)" fill="#fff"/><path d="M105.143,54.341h-6.6v-6.6h-4.8v6.6h-6.6v4.8h6.6v6.6h4.8v-6.6h6.6Z" transform="translate(2 10)" fill="#fff"/></g></g></svg>