<svg xmlns="http://www.w3.org/2000/svg" width="60" height="60" viewBox="0 0 60 60"><g transform="translate(-1362 -661)"><g transform="translate(1362 661)" fill="#fff" stroke="#707070" stroke-width="1"><rect width="60" height="60" stroke="none"/><rect x="0.5" y="0.5" width="59" height="59" fill="none"/></g><path d="M49.837,48.137V36.425c0-6.274-3.35-9.194-7.816-9.194A6.738,6.738,0,0,0,35.9,30.6V27.71h-6.79c.09,1.917,0,20.428,0,20.428H35.9V36.729a4.642,4.642,0,0,1,.224-1.657,3.714,3.714,0,0,1,3.482-2.482c2.458,0,3.44,1.873,3.44,4.618V48.137ZM21.959,24.922A3.541,3.541,0,1,0,22,17.863a3.539,3.539,0,1,0-.088,7.059Zm3.4,23.215V27.71H18.565V48.137ZM3,4H63V64H3Z" transform="translate(1359 657)" fill="#007ab9" fill-rule="evenodd"/></g></svg>