<svg xmlns="http://www.w3.org/2000/svg" viewBox="0 0 249 449"><defs><style>.cls-1{fill:#bbd631;}.cls-1,.cls-2,.cls-3,.cls-4{stroke:#148975;stroke-miterlimit:10;}.cls-2,.cls-3{fill:#fff;}.cls-3{stroke-width:0.25px;}.cls-4{fill:none;}</style></defs><title>Artboard 1</title><g id="Layer_1" data-name="Layer 1"><rect class="cls-1" x="-17" y="-10.33" width="313" height="484.33"/></g><g id="graph"><circle class="cls-2" cx="127.31" cy="86.85" r="35.1"/><polyline class="cls-3" points="107.12 92.71 114.59 88.55 122.84 92.03 130.08 85.69 139.73 86.23 148.06 76.37"/><circle class="cls-3" cx="109.81" cy="92.82" r="3.59" transform="translate(-8.9 11.69) rotate(-5.85)"/><circle class="cls-3" cx="123.74" cy="92.07" r="2.15" transform="translate(-8.75 13.1) rotate(-5.85)"/><circle class="cls-3" cx="131.63" cy="85.87" r="1.94" transform="translate(-8.07 13.88) rotate(-5.85)"/><circle class="cls-3" cx="139.69" cy="86.08" r="1.94" transform="translate(-8.05 14.7) rotate(-5.85)"/><circle class="cls-3" cx="147.68" cy="78.07" r="2.66" transform="translate(-7.19 15.47) rotate(-5.85)"/></g><g id="wrench"><path class="cls-4" d="M169.5,255.17H195s11,.83,11-11v-61.5"/><circle class="cls-2" cx="204.58" cy="159" r="32.67"/><path class="cls-3" d="M224.41,178.88a4.7,4.7,0,0,0-.47-6.76l-21-21a10.68,10.68,0,0,0-13.78-13.48l7.92,7.92-3,3h0l-3,3-7.92-7.92a10.67,10.67,0,0,0,13.48,13.78l21,21a4.7,4.7,0,0,0,6.76.47h0v0h0Z"/><polygon class="cls-3" points="223.51 140.56 223.5 140.57 221.76 138.82 219.99 140.6 219.99 141.92 203.52 158.39 201.07 155.94 199.31 157.7 199.31 159.3 197.81 159.3 183.56 173.54 183.56 175.43 186.32 177.81 186.32 177.8 188.68 180.53 190.57 180.53 204.81 166.28 204.81 164.78 206.41 164.78 208.17 163.02 205.72 160.57 222.19 144.11 223.51 144.11 225.29 142.33 223.51 140.56"/></g><g id="light_bulb_bottom" data-name="light bulb bottom"><path class="cls-2" d="M124.84,375.75v.1H104v24.65s1.8,6,6.45,7.92h13.8v.05l16.13-.16c4.65-2,6.45-7.92,6.45-7.92V375.75Z"/><path class="cls-2" d="M154.06,385.43a5.32,5.32,0,0,0-4.57-5.29v0h-.18a2.63,2.63,0,0,0-1.06,0H102.62a5.09,5.09,0,0,0-.53-.05,5.35,5.35,0,0,0-.49,10.67v.05h47.89v-.07A5.32,5.32,0,0,0,154.06,385.43Z"/><path class="cls-2" d="M154.06,399.47a5.32,5.32,0,0,0-4.57-5.29v0h-.18a2.63,2.63,0,0,0-1.06,0H102.62a5.09,5.09,0,0,0-.53-.05,5.35,5.35,0,0,0-.49,10.67v.05h47.89v-.07A5.32,5.32,0,0,0,154.06,399.47Z"/><path class="cls-2" d="M143.94,412a3.44,3.44,0,0,0-3-3.42h-.11a1.7,1.7,0,0,0-.69,0H110.69a3.29,3.29,0,0,0-.34,0,3.46,3.46,0,0,0-.32,6.9v0h31v0A3.44,3.44,0,0,0,143.94,412Z"/><path class="cls-2" d="M184.16,293.71a58.77,58.77,0,0,0-117.54,0c0,1.71.09,3.4.23,5.07a47.11,47.11,0,0,0,.95,6.69c.06.31.14.61.21.92s.12.55.19.82A58.31,58.31,0,0,0,71.43,317,103.72,103.72,0,0,0,82.3,336.86c15.89,19.24,18.5,35,18.5,35,0,4.46,3.37,4.67,3.37,4.67h10.09v0h32.57s3.4-.22,3.37-4.68c0,0,2.61-15.78,18.5-35C168.71,336.81,185.58,313.74,184.16,293.71Z"/><path class="cls-2" d="M88.06,318.62c-9.24-12-8.5-29.4-2.61-43.32,9.12-21.57,35.26-28.58,36.35-28.73"/><line class="cls-2" x1="125.75" y1="235.33" x2="125.75" y2="122.07"/></g><g id="Gear"><path class="cls-2" d="M68.16,379.78v-4.69H63.58a12,12,0,0,0-1.77-4.31L65,367.55l-3.32-3.32-3.2,3.2a12,12,0,0,0-4.47-1.87v-4.1H49.36v4.1A12,12,0,0,0,45.64,367l-3.13-3.13-3.32,3.32,2.91,2.91a12,12,0,0,0-2.28,5H35v4.69h4.87a12,12,0,0,0,1.62,4.07l-3.37,3.37,3.32,3.32,3.27-3.27a12,12,0,0,0,4.69,2v4.21h4.69v-4.21a12,12,0,0,0,4.1-1.64l3.25,3.25,3.32-3.32-3.16-3.16a12,12,0,0,0,2-4.67ZM51.71,382.7A5.26,5.26,0,1,1,57,377.43,5.26,5.26,0,0,1,51.71,382.7Z"/><path class="cls-2" d="M33.7,387l3.66-1.09-1.12-3.75-3.66,1.09a10,10,0,0,0-2.44-3L32,376.88,28.53,375l-1.79,3.32a10,10,0,0,0-4-.43l-1-3.28L18,375.74,19,379a10,10,0,0,0-2.61,2l-3.27-1.77-1.86,3.44,3,1.65a10,10,0,0,0-.65,4.53l-3.9,1.16,1.12,3.75,3.9-1.16A10,10,0,0,0,17,395.49L15.12,399l3.44,1.86,1.84-3.4a10,10,0,0,0,4.23.52l1,3.37,3.75-1.12-1-3.37a10,10,0,0,0,2.87-2.29l3.39,1.83L36.48,393l-3.29-1.78A10,10,0,0,0,33.7,387ZM19.46,389.2a4.39,4.39,0,1,1,5.46,3A4.39,4.39,0,0,1,19.46,389.2Z"/><path class="cls-2" d="M44.26,347l5.59-1.67-1.7-5.72-5.59,1.67a15.28,15.28,0,0,0-3.71-4.6l2.76-5.11-5.25-2.84-2.74,5.06a15.29,15.29,0,0,0-6.13-.66l-1.49-5-5.72,1.7,1.49,5a15.2,15.2,0,0,0-4,3.09l-5-2.7L10,340.5,14.62,343a15.24,15.24,0,0,0-1,6.91L7.69,351.7l1.7,5.72,5.94-1.77A15.24,15.24,0,0,0,18.8,360l-2.9,5.36,5.25,2.84L24,363a15.26,15.26,0,0,0,6.45.79l1.53,5.14,5.72-1.7-1.53-5.14a15.25,15.25,0,0,0,4.38-3.49l5.17,2.79,2.84-5.25-5-2.71A15.26,15.26,0,0,0,44.26,347Zm-21.73,3.36a6.69,6.69,0,1,1,8.32,4.5A6.69,6.69,0,0,1,22.53,350.38Z"/><path class="cls-2" d="M234.72,377.74l-4.16-2.18-2.13,4.06a12,12,0,0,0-4.63-.43l-1.36-4.35-4.48,1.4,1.35,4.32a12,12,0,0,0-3.74,3.09l-3.64-1.9-2.18,4.16,3.64,1.9a12,12,0,0,0-.48,3.95l-4.22,1.32,1.4,4.48,3.93-1.23a12,12,0,0,0,3.38,4.35L215.15,405l4.16,2.18,2.26-4.32a12,12,0,0,0,4.36.45l1.42,4.55,4.48-1.4L230.45,402a12,12,0,0,0,4-3.21l3.73,2,2.18-4.16-3.73-2a12,12,0,0,0,.45-4.39l4.39-1.37-1.4-4.48-4.27,1.33a12,12,0,0,0-3.2-4Zm-5.05,15.93a5.26,5.26,0,1,1-2.22-7.1A5.26,5.26,0,0,1,229.67,393.67Z"/><path class="cls-2" d="M225.12,411.61l.73-3.75-3.84-.75-.73,3.75a10,10,0,0,0-3.8.76l-2.13-3.16-3.24,2.18,2.11,3.13a10,10,0,0,0-2.25,3.36l-3.36-.66-.75,3.84,3.36.66a10,10,0,0,0,.58,3.25l-3.09,2.08,2.18,3.24,2.87-1.93a10,10,0,0,0,3.71,2.68l-.78,4,3.84.75.78-4a10,10,0,0,0,3.58-.69l2.23,3.31,3.24-2.18-2.16-3.21a10,10,0,0,0,2.42-3.5l3.45.67.75-3.84-3.45-.67a10,10,0,0,0-.7-3.6l3.2-2.15-2.18-3.24L228.6,414A10,10,0,0,0,225.12,411.61Zm-4.66,13.64a4.39,4.39,0,1,1,5.15-3.46A4.39,4.39,0,0,1,220.46,425.25Z"/><path class="cls-2" d="M194.61,383.71l1.12-5.72-5.85-1.14-1.12,5.72a15.28,15.28,0,0,0-5.8,1.16l-3.24-4.82-4.95,3.33L178,387a15.29,15.29,0,0,0-3.43,5.12l-5.13-1L168.28,397l5.13,1a15.2,15.2,0,0,0,.89,5l-4.71,3.17,3.33,4.95,4.38-3a15.24,15.24,0,0,0,5.67,4.09l-1.19,6.09,5.85,1.14,1.19-6.09a15.24,15.24,0,0,0,5.46-1l3.4,5.05,4.95-3.33-3.29-4.89a15.26,15.26,0,0,0,3.69-5.34l5.26,1,1.14-5.85-5.26-1a15.25,15.25,0,0,0-1.06-5.5l4.87-3.28-3.33-4.95-4.73,3.18A15.26,15.26,0,0,0,194.61,383.71Zm-7.1,20.81a6.69,6.69,0,1,1,7.85-5.28A6.69,6.69,0,0,1,187.5,404.51Z"/></g><g id="rocket_ship" data-name="rocket ship"><circle class="cls-2" cx="48.42" cy="141.42" r="36.75"/><path class="cls-3" d="M48.21,156.85h0c-5.13,1.86-4.71,5.42-4.71,5.42.29,2.43,4.12,6.48,4.12,6.48l.59.51h0l.59-.51s3.83-4.06,4.12-6.48C52.92,162.27,53.34,158.7,48.21,156.85Z"/><path class="cls-3" d="M48.21,156.84h0c-4.13,1.49-3.78,4.36-3.78,4.36.23,1.95,3.31,5.21,3.31,5.21l.47.41h0l.47-.41s3.08-3.26,3.31-5.21C52,161.2,52.34,158.34,48.21,156.84Z"/><rect class="cls-3" x="42.5" y="157.81" width="11.21" height="0.67"/><path class="cls-3" d="M50.29,117a3.83,3.83,0,0,0-2.18-1.4h0a3.83,3.83,0,0,0-2.18,1.4,33.63,33.63,0,0,0-5.77,11.7H56.06A33.63,33.63,0,0,0,50.29,117Z"/><path class="cls-3" d="M56.06,128.74l-7.83,0H48l-7.83,0s-3.91,13.2,2.35,29.07h11.2C60,141.94,56.06,128.74,56.06,128.74Z"/><path class="cls-3" d="M42.5,157.81s-4.11-2.78-6.34,5l-1.53-.28s0-8.67,5.67-11.74Z"/><path class="cls-3" d="M53.71,157.81s4.11-2.78,6.34,5l1.53-.28s0-8.7-5.67-11.76Z"/><path class="cls-3" d="M49.9,150.9H46.57a35.08,35.08,0,0,1,1.2,11.69h.93A35.08,35.08,0,0,1,49.9,150.9Z"/><path class="cls-3" d="M48.23,130.9h0a5.35,5.35,0,0,0,0,10.7h0a5.35,5.35,0,0,0,0-10.7Zm0,8.29h0a2.95,2.95,0,0,1,0-5.89h0a2.95,2.95,0,0,1,0,5.89Z"/><path class="cls-4" d="M85.33,250.5H59.83s-11,.83-11-11V178"/></g></svg>