<svg xmlns="http://www.w3.org/2000/svg" width="473.5" height="473.4" viewBox="0 0 473.5 473.4"><g transform="translate(-19.4 -19.3)"><path d="M19.4,81.1V492.7H492.9V19.3H19.4Z" fill="#527fa4"/><path d="M255.1,139.9c37.9,0,42.4.1,57.4.8,13.8.6,21.4,2.9,26.4,4.9a46.9,46.9,0,0,1,26.9,26.9c1.9,5,4.3,12.5,4.9,26.4.7,15,.8,19.5.8,57.4s-.1,42.4-.8,57.4c-.6,13.8-2.9,21.4-4.9,26.4A46.9,46.9,0,0,1,338.9,367c-5,1.9-12.5,4.3-26.4,4.9-15,.7-19.5.8-57.4.8s-42.4-.1-57.4-.8c-13.8-.6-21.4-2.9-26.4-4.9a46.9,46.9,0,0,1-26.9-26.9c-1.9-5-4.3-12.5-4.9-26.4-.7-15-.8-19.5-.8-57.4s.1-42.4.8-57.4c.6-13.8,2.9-21.4,4.9-26.4a46.9,46.9,0,0,1,26.9-26.9c5-1.9,12.5-4.3,26.4-4.9,15-.6,19.5-.8,57.4-.8m0-25.6c-38.6,0-43.4.2-58.6.9-15.1.7-25.4,3.1-34.5,6.6a69.754,69.754,0,0,0-25.2,16.4,68.922,68.922,0,0,0-16.4,25.2c-3.5,9-5.9,19.4-6.6,34.5-.7,15.2-.9,20-.9,58.6s.2,43.4.9,58.6c.7,15.1,3.1,25.4,6.6,34.5a69.754,69.754,0,0,0,16.4,25.2A68.922,68.922,0,0,0,162,391.2c9,3.5,19.4,5.9,34.5,6.6,15.2.7,20,.9,58.6.9s43.4-.2,58.6-.9c15.1-.7,25.4-3.1,34.5-6.6a69.754,69.754,0,0,0,25.2-16.4,68.921,68.921,0,0,0,16.4-25.2c3.5-9,5.9-19.4,6.6-34.5.7-15.2.9-20,.9-58.6s-.2-43.4-.9-58.6c-.7-15.1-3.1-25.4-6.6-34.5a69.754,69.754,0,0,0-16.4-25.2,68.921,68.921,0,0,0-25.2-16.4c-9-3.5-19.4-5.9-34.5-6.6-15.2-.7-20-.9-58.6-.9Z" fill="#fff"/><path d="M255.1,183.4A72.9,72.9,0,1,0,328,256.3,72.915,72.915,0,0,0,255.1,183.4Zm0,120.3a47.3,47.3,0,1,1,47.3-47.3A47.266,47.266,0,0,1,255.1,303.7Z" fill="#fff"/><circle cx="17" cy="17" r="17" transform="translate(314 163.6)" fill="#fff"/></g></svg>