<svg xmlns="http://www.w3.org/2000/svg" width="60" height="60" viewBox="0 0 60 60"><g transform="translate(-1432 -667)"><g transform="translate(1432 667)" fill="#fff" stroke="#707070" stroke-width="1"><rect width="60" height="60" stroke="none"/><rect x="0.5" y="0.5" width="59" height="59" fill="none"/></g><path d="M37.167,22.283a6.066,6.066,0,0,0-4.086,6.1l.063,1.038L32.1,29.3a17.029,17.029,0,0,1-9.974-4.915L20.739,23l-.356,1.017a6.122,6.122,0,0,0,1.3,6.271c.838.89.649,1.017-.8.487a2.489,2.489,0,0,0-.985-.233,7.612,7.612,0,0,0,.754,2.839A6.763,6.763,0,0,0,23.526,36.1l1.027.487-1.215.021c-1.173,0-1.215.021-1.089.466a6.339,6.339,0,0,0,3.918,3.475l1.3.444-1.131.678a11.786,11.786,0,0,1-5.616,1.568A6.225,6.225,0,0,0,19,43.4a15.937,15.937,0,0,0,4.044,1.864A17.68,17.68,0,0,0,36.79,43.7a18.423,18.423,0,0,0,6.978-8.22,21.865,21.865,0,0,0,1.425-6.355c0-.975.063-1.1,1.236-2.267A13.894,13.894,0,0,0,47.9,25.228c.21-.4.188-.4-.88-.044-1.781.637-2.033.552-1.152-.4a6.169,6.169,0,0,0,1.425-2.268c0-.062-.314.042-.671.233a11.583,11.583,0,0,1-1.844.72l-1.131.361-1.027-.7a8.517,8.517,0,0,0-1.781-.932A7.169,7.169,0,0,0,37.167,22.283ZM3,4H63V64H3Z" transform="translate(1429 663)" fill="#598dca" fill-rule="evenodd"/></g></svg>