<svg xmlns="http://www.w3.org/2000/svg" viewBox="0 0 249 449"><defs><style>.cls-1,.cls-3{fill:#fff;}.cls-1{stroke:#148975;}.cls-1,.cls-2,.cls-3,.cls-4,.cls-5{stroke-miterlimit:10;}.cls-2{fill:#c7e9f2;stroke:#456cb3;}.cls-3,.cls-4,.cls-5{stroke:#466cb3;}.cls-4{fill:#456cb3;}.cls-5{fill:none;}</style></defs><title>Artboard 1</title><g id="Layer_1" data-name="Layer 1"><rect class="cls-1" x="-137" y="-103" width="494" height="650"/></g><g id="wrench"><circle class="cls-2" cx="123.17" cy="86.67" r="51.67"/><path class="cls-3" d="M154.53,118.11a7.43,7.43,0,0,0-.74-10.69L120.49,74.13A16.89,16.89,0,0,0,98.71,52.81l12.52,12.52-4.74,4.74h0l-4.77,4.77L89.2,62.32a16.88,16.88,0,0,0,21.32,21.79l33.29,33.29a7.43,7.43,0,0,0,10.69.74h0l0,0h0Z"/><polygon class="cls-3" points="153.1 57.5 153.09 57.51 150.33 54.76 147.53 57.56 147.53 59.66 121.48 85.7 117.61 81.83 114.82 84.62 114.82 87.14 112.45 87.14 89.92 109.67 89.92 112.65 94.27 116.42 94.29 116.41 98.02 120.72 101 120.72 123.53 98.19 123.53 95.82 126.05 95.82 128.84 93.03 124.97 89.16 151.01 63.11 153.1 63.11 155.91 60.3 153.1 57.5"/></g><g id="light_bulb_bottom" data-name="light bulb bottom"><path class="cls-4" d="M123.84,337.75v.1H103v24.65s1.8,6,6.45,7.92h13.8v.05l16.13-.16c4.65-2,6.45-7.92,6.45-7.92V337.75Z"/><path class="cls-2" d="M153.06,347.43a5.32,5.32,0,0,0-4.57-5.29v0h-.18a2.63,2.63,0,0,0-1.06,0H101.62a5.09,5.09,0,0,0-.53-.05,5.35,5.35,0,0,0-.49,10.67v.05h47.89v-.07A5.32,5.32,0,0,0,153.06,347.43Z"/><path class="cls-2" d="M153.06,361.47a5.32,5.32,0,0,0-4.57-5.29v0h-.18a2.63,2.63,0,0,0-1.06,0H101.62a5.09,5.09,0,0,0-.53-.05,5.35,5.35,0,0,0-.49,10.67v.05h47.89v-.07A5.32,5.32,0,0,0,153.06,361.47Z"/><path class="cls-2" d="M142.94,374a3.44,3.44,0,0,0-3-3.42h-.11a1.7,1.7,0,0,0-.69,0H109.69a3.29,3.29,0,0,0-.34,0,3.46,3.46,0,0,0-.32,6.9v0h31v0A3.44,3.44,0,0,0,142.94,374Z"/><path class="cls-2" d="M183.16,255.71a58.77,58.77,0,0,0-117.54,0c0,1.71.09,3.4.23,5.07a47.11,47.11,0,0,0,.95,6.69c.06.31.14.61.21.92s.12.55.19.82A58.31,58.31,0,0,0,70.43,279,103.72,103.72,0,0,0,81.3,298.86c15.89,19.24,18.5,35,18.5,35,0,4.46,3.37,4.67,3.37,4.67h10.09v0h32.57s3.4-.22,3.37-4.68c0,0,2.61-15.78,18.5-35C167.71,298.81,184.58,275.74,183.16,255.71Z"/><path class="cls-5" d="M87.06,280.62c-9.24-12-8.5-29.4-2.61-43.32,9.12-21.57,35.26-28.58,36.35-28.73"/><line class="cls-3" x1="124.75" y1="196.69" x2="124.75" y2="138.07"/></g><g id="Gear"><path class="cls-2" d="M67.16,341.78v-4.69H62.58a12,12,0,0,0-1.77-4.31L64,329.55l-3.32-3.32-3.2,3.2a12,12,0,0,0-4.47-1.87v-4.1H48.36v4.1A12,12,0,0,0,44.64,329l-3.13-3.13-3.32,3.32,2.91,2.91a12,12,0,0,0-2.28,5H34v4.69h4.87a12,12,0,0,0,1.62,4.07l-3.37,3.37,3.32,3.32,3.27-3.27a12,12,0,0,0,4.69,2v4.21h4.69v-4.21a12,12,0,0,0,4.1-1.64l3.25,3.25,3.32-3.32-3.16-3.16a12,12,0,0,0,2-4.67ZM50.71,344.7A5.26,5.26,0,1,1,56,339.43,5.26,5.26,0,0,1,50.71,344.7Z"/><path class="cls-2" d="M32.7,349l3.66-1.09-1.12-3.75-3.66,1.09a10,10,0,0,0-2.44-3L31,338.88,27.53,337l-1.79,3.32a10,10,0,0,0-4-.43l-1-3.28L17,337.74,18,341a10,10,0,0,0-2.61,2l-3.27-1.77-1.86,3.44,3,1.65a10,10,0,0,0-.65,4.53l-3.9,1.16,1.12,3.75,3.9-1.16A10,10,0,0,0,16,357.49L14.12,361l3.44,1.86,1.84-3.4a10,10,0,0,0,4.23.52l1,3.37,3.75-1.12-1-3.37a10,10,0,0,0,2.87-2.29l3.39,1.83L35.48,355l-3.29-1.78A10,10,0,0,0,32.7,349ZM18.46,351.2a4.39,4.39,0,1,1,5.46,3A4.39,4.39,0,0,1,18.46,351.2Z"/><path class="cls-2" d="M43.26,309l5.59-1.67-1.7-5.72-5.59,1.67a15.28,15.28,0,0,0-3.71-4.6l2.76-5.11-5.25-2.84-2.74,5.06a15.29,15.29,0,0,0-6.13-.66l-1.49-5-5.72,1.7,1.49,5a15.2,15.2,0,0,0-4,3.09l-5-2.7L9,302.5,13.62,305a15.24,15.24,0,0,0-1,6.91L6.69,313.7l1.7,5.72,5.94-1.77A15.24,15.24,0,0,0,17.8,322l-2.9,5.36,5.25,2.84L23,325a15.26,15.26,0,0,0,6.45.79l1.53,5.14,5.72-1.7-1.53-5.14a15.25,15.25,0,0,0,4.38-3.49l5.17,2.79,2.84-5.25-5-2.71A15.26,15.26,0,0,0,43.26,309Zm-21.73,3.36a6.69,6.69,0,1,1,8.32,4.5A6.69,6.69,0,0,1,21.53,312.38Z"/><path class="cls-2" d="M233.72,339.74l-4.16-2.18-2.13,4.06a12,12,0,0,0-4.63-.43l-1.36-4.35-4.48,1.4,1.35,4.32a12,12,0,0,0-3.74,3.09l-3.64-1.9-2.18,4.16,3.64,1.9a12,12,0,0,0-.48,3.95l-4.22,1.32,1.4,4.48,3.93-1.23a12,12,0,0,0,3.38,4.35L214.15,367l4.16,2.18,2.26-4.32a12,12,0,0,0,4.36.45l1.42,4.55,4.48-1.4L229.45,364a12,12,0,0,0,4-3.21l3.73,2,2.18-4.16-3.73-2a12,12,0,0,0,.45-4.39l4.39-1.37-1.4-4.48-4.27,1.33a12,12,0,0,0-3.2-4Zm-5.05,15.93a5.26,5.26,0,1,1-2.22-7.1A5.26,5.26,0,0,1,228.67,355.67Z"/><path class="cls-2" d="M224.12,373.61l.73-3.75-3.84-.75-.73,3.75a10,10,0,0,0-3.8.76l-2.13-3.16-3.24,2.18,2.11,3.13a10,10,0,0,0-2.25,3.36l-3.36-.66-.75,3.84,3.36.66a10,10,0,0,0,.58,3.25l-3.09,2.08,2.18,3.24,2.87-1.93a10,10,0,0,0,3.71,2.68l-.78,4,3.84.75.78-4a10,10,0,0,0,3.58-.69l2.23,3.31,3.24-2.18-2.16-3.21a10,10,0,0,0,2.42-3.5l3.45.67.75-3.84-3.45-.67a10,10,0,0,0-.7-3.6l3.2-2.15-2.18-3.24L227.6,376A10,10,0,0,0,224.12,373.61Zm-4.66,13.64a4.39,4.39,0,1,1,5.15-3.46A4.39,4.39,0,0,1,219.46,387.25Z"/><path class="cls-2" d="M193.61,345.71l1.12-5.72-5.85-1.14-1.12,5.72a15.28,15.28,0,0,0-5.8,1.16l-3.24-4.82-4.95,3.33L177,349a15.29,15.29,0,0,0-3.43,5.12l-5.13-1L167.28,359l5.13,1a15.2,15.2,0,0,0,.89,5l-4.71,3.17,3.33,4.95,4.38-3a15.24,15.24,0,0,0,5.67,4.09l-1.19,6.09,5.85,1.14,1.19-6.09a15.24,15.24,0,0,0,5.46-1l3.4,5.05,4.95-3.33-3.29-4.89a15.26,15.26,0,0,0,3.69-5.34l5.26,1,1.14-5.85-5.26-1a15.25,15.25,0,0,0-1.06-5.5l4.87-3.28-3.33-4.95-4.73,3.18A15.26,15.26,0,0,0,193.61,345.71Zm-7.1,20.81a6.69,6.69,0,1,1,7.85-5.28A6.69,6.69,0,0,1,186.5,366.51Z"/></g></svg>