<?xml version="1.0" encoding="utf-8"?>
<!-- Generator: Adobe Illustrator 20.0.0, SVG Export Plug-In . SVG Version: 6.00 Build 0)  -->
<svg version="1.1" xmlns="http://www.w3.org/2000/svg" xmlns:xlink="http://www.w3.org/1999/xlink" x="0px" y="0px"
	 viewBox="0 0 249 449" style="enable-background:new 0 0 249 449;" xml:space="preserve">
<style type="text/css">
	.st0{fill:#FFFFFF;stroke:#148975;stroke-miterlimit:10;}
	.st1{fill:#C7E9F2;stroke:#456CB3;stroke-miterlimit:10;}
	.st2{display:none;}
	.st3{display:inline;fill:#FFFFFF;stroke:#466CB3;stroke-miterlimit:10;}
	.st4{fill:#FFFFFF;stroke:#466CB3;stroke-miterlimit:10;}
	.st5{fill:#466CB3;stroke:#466CB3;stroke-miterlimit:10;}
	.st6{fill:#FFFFFF;}
	.st7{fill:#466CB3;}
	.st8{fill:#456CB3;stroke:#466CB3;stroke-miterlimit:10;}
	.st9{fill:none;stroke:#466CB3;stroke-miterlimit:10;}
	.st10{display:inline;fill:#C7E9F2;stroke:#456CB3;stroke-miterlimit:10;}
	.st11{display:inline;fill:none;stroke:#466CB3;stroke-miterlimit:10;}
	.st12{display:inline;fill:#FFFFFF;stroke:#466CB3;stroke-width:0.75;stroke-miterlimit:10;}
	.st13{fill:none;stroke:#148975;stroke-miterlimit:10;}
</style>
<g id="Layer_1">
	
		<image style="display:none;overflow:visible;" width="626" height="626" xlink:href="C9A74BB2.jpg"  transform="matrix(0.4779 0 0 0.4779 -32 107.0833)">
	</image>
	<rect x="-137" y="-103" class="st0" width="494" height="650"/>
</g>
<g id="bg_circle">
	<circle class="st1" cx="123.2" cy="86.7" r="51.7"/>
</g>
<g id="wrench" class="st2">
	<path class="st3" d="M154.5,118.1c1.2-1.3,1.9-3.1,1.9-5c0-2.3-1-4.3-2.7-5.7l-33.3-33.3c0.6-1.7,0.9-3.5,0.9-5.4
		c0-9.3-7.6-16.9-16.9-16.9c-2,0-4,0.4-5.8,1l12.5,12.5l-4.7,4.7l0,0l-4.8,4.8L89.2,62.3c-0.7,1.8-1,3.7-1,5.8
		c0,9.3,7.6,16.9,16.9,16.9c1.9,0,3.7-0.3,5.4-0.9l33.3,33.3c1.4,1.6,3.4,2.7,5.7,2.7C151.4,120.1,153.2,119.3,154.5,118.1
		L154.5,118.1C154.5,118.1,154.5,118.1,154.5,118.1C154.5,118.1,154.5,118.1,154.5,118.1L154.5,118.1z"/>
	<polygon class="st3" points="153.1,57.5 153.1,57.5 150.3,54.8 147.5,57.6 147.5,59.7 121.5,85.7 117.6,81.8 114.8,84.6 
		114.8,87.1 112.5,87.1 89.9,109.7 89.9,112.7 94.3,116.4 94.3,116.4 98,120.7 101,120.7 123.5,98.2 123.5,95.8 126.1,95.8 
		128.8,93 125,89.2 151,63.1 153.1,63.1 155.9,60.3 	"/>
</g>
<g id="ui_and_ux">
	<g id="ruler">
		<g>
			<path class="st4" d="M155.5,101.3l-50.4-44.6c-0.8-0.7-2.1-0.7-2.8,0.2L92.3,68.2c-0.7,0.8-0.7,2.1,0.2,2.8l50.4,44.6
				c0.8,0.7,2.1,0.7,2.8-0.2l10.1-11.4C156.4,103.3,156.3,102,155.5,101.3z"/>
			
				<rect x="103.1" y="59.9" transform="matrix(0.6632 -0.7484 0.7484 0.6632 -10.0647 99.7695)" class="st5" width="5.5" height="2.2"/>
			
				<rect x="108.1" y="64.4" transform="matrix(0.6632 -0.7484 0.7484 0.6632 -11.7132 105.057)" class="st5" width="5.5" height="2.2"/>
			
				<rect x="113.2" y="68.9" transform="matrix(0.6632 -0.7484 0.7484 0.6632 -13.3616 110.3445)" class="st5" width="5.5" height="2.2"/>
			
				<rect x="118.2" y="73.4" transform="matrix(0.6632 -0.7484 0.7484 0.6632 -15.0101 115.632)" class="st5" width="5.5" height="2.2"/>
			
				<rect x="123.3" y="77.8" transform="matrix(0.6632 -0.7484 0.7484 0.6632 -16.6586 120.9195)" class="st5" width="5.5" height="2.2"/>
			
				<rect x="128.3" y="82.3" transform="matrix(0.6632 -0.7484 0.7484 0.6632 -18.3071 126.2071)" class="st5" width="5.5" height="2.2"/>
			
				<rect x="133.4" y="86.8" transform="matrix(0.6632 -0.7484 0.7484 0.6632 -19.9556 131.4946)" class="st5" width="5.5" height="2.2"/>
			
				<rect x="138.4" y="91.3" transform="matrix(0.6632 -0.7484 0.7484 0.6632 -21.6041 136.7821)" class="st5" width="5.5" height="2.2"/>
			
				<rect x="143.5" y="95.7" transform="matrix(0.6632 -0.7484 0.7484 0.6632 -23.2525 142.0696)" class="st5" width="5.5" height="2.2"/>
			
				<rect x="148.5" y="100.2" transform="matrix(0.6632 -0.7484 0.7484 0.6632 -24.901 147.3571)" class="st5" width="5.5" height="2.2"/>
			
				<ellipse transform="matrix(0.6632 -0.7484 0.7484 0.6632 -15.6193 98.9554)" class="st4" cx="102.1" cy="66.8" rx="2.4" ry="2.2"/>
		</g>
	</g>
	<g id="pencil">
		<g>
			<g>
				<g>
					<path class="st6" d="M98.1,105.9l47.8-50.4c0,0,0.3-0.2,0.8-0.2c0.1,0,0.1,0,0.2,0c0.5,0.1,0.9,0.3,1.1,0.5l1.7,1.6l1.7,1.6
						c0.1,0.1,0.4,0.5,0.5,1c0.1,0.5-0.1,0.9-0.2,1l-47.5,50.6l-7.9,2.3L98.1,105.9z"/>
					<path class="st7" d="M146.6,55.7c0,0,0.1,0,0.2,0c0.4,0.1,0.7,0.3,0.8,0.4l1.7,1.6l0.9,0.9l0.7,0.7c0.1,0.1,0.4,0.4,0.4,0.8
						c0.1,0.3,0,0.5-0.1,0.6l-47.4,50.4l-2.7,0.8l-4.2,1.2l1-4.4l0.6-2.6L139,63.4l7.2-7.6C146.2,55.8,146.4,55.7,146.6,55.7
						 M146.6,54.7c-0.6,0-1,0.3-1.1,0.4c-16,16.8-31.9,33.7-47.9,50.5c-0.7,3-1.3,6-2,8.9c0,0,0,0,0,0c0,0,0,0,0,0c0,0,0,0,0,0
						c0,0,0,0,0,0c2.9-0.8,5.9-1.7,8.8-2.5c15.9-16.9,31.8-33.8,47.7-50.7c0.1-0.1,0.4-0.6,0.3-1.4c-0.1-0.7-0.5-1.1-0.7-1.3
						c-0.6-0.5-1.1-1.1-1.7-1.6l0,0c0,0,0,0,0,0c0,0,0,0,0,0l0,0c-0.6-0.5-1.1-1.1-1.7-1.6c-0.2-0.1-0.6-0.5-1.3-0.6
						C146.8,54.7,146.7,54.7,146.6,54.7L146.6,54.7z"/>
				</g>
				<g>
					<path class="st6" d="M142.4,59.1l3.4-3.6c0,0,0.3-0.2,0.8-0.2c0.1,0,0.1,0,0.2,0c0.5,0.1,0.9,0.4,1.1,0.5l1.7,1.6l1.7,1.6
						c0.2,0.2,0.4,0.5,0.5,1c0.1,0.5-0.1,0.9-0.2,1l-1.3,1.3l-2.1,2.2L142.4,59.1z"/>
					<path class="st7" d="M146.6,55.7c0,0,0.1,0,0.2,0c0.4,0.1,0.7,0.3,0.8,0.4l1.7,1.6l0.9,0.8l0.8,0.8c0.1,0.1,0.4,0.4,0.4,0.8
						c0.1,0.3,0,0.5-0.1,0.6l-1.6,1.7l-1.4,1.5l-5.2-4.9l1.3-1.4l1.7-1.8C146.2,55.8,146.4,55.7,146.6,55.7 M146.6,54.7
						c-0.6,0-1,0.3-1.1,0.4c-1.3,1.3-2.5,2.7-3.8,4l6.6,6.2c1.3-1.3,2.5-2.7,3.8-4c0.1-0.1,0.4-0.6,0.3-1.4
						c-0.1-0.7-0.5-1.1-0.7-1.3c-0.6-0.5-1.1-1.1-1.7-1.6l0,0c0,0,0,0,0,0c0,0,0,0,0,0l0,0c-0.6-0.5-1.1-1.1-1.7-1.6
						c-0.2-0.1-0.6-0.5-1.3-0.6C146.8,54.7,146.7,54.7,146.6,54.7L146.6,54.7z"/>
				</g>
			</g>
			<line class="st4" x1="103.9" y1="111.7" x2="97.9" y2="106"/>
			<path class="st5" d="M99.9,112.6c-0.8-0.8-1.7-1.6-2.5-2.4c-0.2,1.1-0.4,2.1-0.6,3.2C97.8,113.1,98.8,112.9,99.9,112.6z"/>
			
				<rect x="144.1" y="58.5" transform="matrix(0.6863 -0.7273 0.7273 0.6863 6.845396e-02 124.7958)" class="st5" width="1.3" height="7.6"/>
		</g>
	</g>
</g>
<g id="light_bulb_bottom">
	<path class="st8" d="M123.8,337.7l0,0.1l-20.8,0v24.7c0,0,1.8,6,6.4,7.9h13.8l0,0.1l16.1-0.2c4.7-2,6.4-7.9,6.4-7.9v-24.7H123.8z"
		/>
	<path class="st1" d="M153.1,347.4c0-2.7-2-4.9-4.6-5.3v0h-0.2c-0.2,0-0.3-0.1-0.5-0.1s-0.4,0-0.5,0.1h-45.6c-0.2,0-0.3-0.1-0.5-0.1
		c-2.9,0-5.3,2.4-5.3,5.4c0,2.8,2.1,5.1,4.8,5.3v0.1h47.9v-0.1C151.1,352.4,153.1,350.1,153.1,347.4z"/>
	<path class="st1" d="M153.1,361.5c0-2.7-2-4.9-4.6-5.3v0h-0.2c-0.2,0-0.3-0.1-0.5-0.1s-0.4,0-0.5,0.1h-45.6c-0.2,0-0.3-0.1-0.5-0.1
		c-2.9,0-5.3,2.4-5.3,5.4c0,2.8,2.1,5.1,4.8,5.3v0.1h47.9v-0.1C151.1,366.4,153.1,364.2,153.1,361.5z"/>
	<path class="st1" d="M142.9,374c0-1.8-1.3-3.2-3-3.4v0h-0.1c-0.1,0-0.2,0-0.3,0c-0.1,0-0.2,0-0.3,0h-29.5c-0.1,0-0.2,0-0.3,0
		c-1.9,0-3.4,1.6-3.4,3.5c0,1.8,1.4,3.3,3.1,3.4v0h31v0C141.6,377.2,142.9,375.8,142.9,374z"/>
	<path class="st1" d="M183.2,255.7c0-32.5-26.3-58.8-58.8-58.8s-58.8,26.3-58.8,58.8c0,1.7,0.1,3.4,0.2,5.1c0.1,2.2,0.5,4.5,0.9,6.7
		c0.1,0.3,0.1,0.6,0.2,0.9c0.1,0.3,0.1,0.5,0.2,0.8c0.8,3.4,1.9,6.7,3.2,9.8c4.6,11.2,10.9,19.9,10.9,19.9
		c15.9,19.2,18.5,35,18.5,35c0,4.5,3.4,4.7,3.4,4.7h10.1v0h20.9v0h11.7c0,0,3.4-0.2,3.4-4.7c0,0,2.6-15.8,18.5-35
		C167.7,298.8,184.6,275.7,183.2,255.7z"/>
	<path class="st9" d="M87.1,280.6c-9.2-12-8.5-29.4-2.6-43.3c9.1-21.6,35.3-28.6,36.4-28.7"/>
	<line class="st4" x1="124.8" y1="196.7" x2="124.8" y2="138.1"/>
</g>
<g id="graph" class="st2">
	<circle class="st10" cx="122.3" cy="94.2" r="51.8"/>
	<polyline class="st11" points="92.5,102.8 103.5,96.7 115.7,101.8 126.4,92.5 140.6,93.3 152.9,78.7 	"/>
	<ellipse transform="matrix(0.9948 -0.102 0.102 0.9948 -10.0019 10.3807)" class="st12" cx="96.5" cy="103" rx="5.3" ry="5.3"/>
	<ellipse transform="matrix(0.9948 -0.102 0.102 0.9948 -9.782 12.4705)" class="st12" cx="117" cy="101.9" rx="3.2" ry="3.2"/>
	<ellipse transform="matrix(0.9948 -0.102 0.102 0.9948 -8.7885 13.6106)" class="st12" cx="128.7" cy="92.7" rx="2.9" ry="2.9"/>
	<ellipse transform="matrix(0.9948 -0.102 0.102 0.9948 -8.7579 14.8247)" class="st12" cx="140.6" cy="93" rx="2.9" ry="2.9"/>
	<ellipse transform="matrix(0.9948 -0.102 0.102 0.9948 -7.4915 15.9653)" class="st12" cx="152.4" cy="81.2" rx="3.9" ry="3.9"/>
</g>
<g id="Gear">
	<path class="st1" d="M67.2,341.8v-4.7h-4.6c-0.3-1.6-0.9-3-1.8-4.3l3.2-3.2l-3.3-3.3l-3.2,3.2c-1.3-0.9-2.8-1.6-4.5-1.9v-4.1h-4.7
		v4.1c-1.3,0.3-2.6,0.7-3.7,1.4l-3.1-3.1l-3.3,3.3l2.9,2.9c-1.1,1.4-1.9,3.2-2.3,5H34v4.7h4.9c0.3,1.5,0.9,2.8,1.6,4.1l-3.4,3.4
		l3.3,3.3l3.3-3.3c1.4,1,3,1.7,4.7,2v4.2h4.7v-4.2c1.5-0.3,2.9-0.9,4.1-1.6l3.3,3.3l3.3-3.3l-3.2-3.2c1-1.4,1.7-3,2-4.7H67.2z
		 M50.7,344.7c-2.9,0-5.3-2.4-5.3-5.3s2.4-5.3,5.3-5.3c2.9,0,5.3,2.4,5.3,5.3S53.6,344.7,50.7,344.7z"/>
	<path class="st1" d="M32.7,349l3.7-1.1l-1.1-3.7l-3.7,1.1c-0.6-1.2-1.5-2.2-2.4-3l1.8-3.3l-3.4-1.9l-1.8,3.3
		c-1.3-0.4-2.6-0.6-4-0.4l-1-3.3l-3.7,1.1l1,3.3c-1,0.5-1.9,1.2-2.6,2l-3.3-1.8l-1.9,3.4l3,1.6c-0.5,1.4-0.8,3-0.6,4.5l-3.9,1.2
		l1.1,3.7l3.9-1.2c0.6,1.1,1.4,2.1,2.3,2.8l-1.9,3.5l3.4,1.9l1.8-3.4c1.3,0.5,2.8,0.7,4.2,0.5l1,3.4l3.7-1.1l-1-3.4
		c1.1-0.6,2.1-1.4,2.9-2.3l3.4,1.8l1.9-3.4l-3.3-1.8C32.7,351.9,32.8,350.4,32.7,349z M18.5,351.2c-0.7-2.3,0.6-4.8,3-5.5
		s4.8,0.6,5.5,3c0.7,2.3-0.6,4.8-3,5.5C21.6,354.8,19.2,353.5,18.5,351.2z"/>
	<path class="st1" d="M43.3,309l5.6-1.7l-1.7-5.7l-5.6,1.7c-0.9-1.8-2.2-3.3-3.7-4.6l2.8-5.1l-5.2-2.8l-2.7,5.1
		c-1.9-0.6-4-0.9-6.1-0.7l-1.5-5l-5.7,1.7l1.5,5c-1.5,0.8-2.8,1.9-4,3.1l-5-2.7L9,302.5l4.6,2.5c-0.8,2.2-1.2,4.5-1,6.9l-5.9,1.8
		l1.7,5.7l5.9-1.8c0.9,1.7,2.1,3.1,3.5,4.3l-2.9,5.4l5.2,2.8L23,325c2,0.7,4.2,1,6.4,0.8l1.5,5.1l5.7-1.7l-1.5-5.1
		c1.7-0.9,3.2-2.1,4.4-3.5l5.2,2.8l2.8-5.2l-5-2.7C43.2,313.4,43.5,311.2,43.3,309z M21.5,312.4c-1.1-3.5,1-7.3,4.5-8.3
		s7.3,1,8.3,4.5c1.1,3.5-1,7.3-4.5,8.3C26.3,317.9,22.6,315.9,21.5,312.4z"/>
	<path class="st1" d="M233.7,339.7l-4.2-2.2l-2.1,4.1c-1.5-0.5-3.1-0.6-4.6-0.4l-1.4-4.4l-4.5,1.4l1.3,4.3c-1.4,0.8-2.7,1.8-3.7,3.1
		l-3.6-1.9l-2.2,4.2l3.6,1.9c-0.4,1.3-0.5,2.6-0.5,3.9l-4.2,1.3l1.4,4.5l3.9-1.2c0.8,1.7,1.9,3.2,3.4,4.3l-2.3,4.3l4.2,2.2l2.3-4.3
		c1.4,0.4,2.9,0.6,4.4,0.5l1.4,4.6l4.5-1.4l-1.4-4.4c1.5-0.8,2.9-1.8,4-3.2l3.7,2l2.2-4.2l-3.7-2c0.4-1.4,0.6-2.9,0.5-4.4l4.4-1.4
		l-1.4-4.5l-4.3,1.3c-0.8-1.5-1.8-2.9-3.2-4L233.7,339.7z M228.7,355.7c-1.3,2.6-4.5,3.6-7.1,2.2c-2.6-1.3-3.6-4.5-2.2-7.1
		c1.3-2.6,4.5-3.6,7.1-2.2C229,349.9,230,353.1,228.7,355.7z"/>
	<path class="st1" d="M224.1,373.6l0.7-3.8l-3.8-0.7l-0.7,3.8c-1.3,0-2.6,0.3-3.8,0.8l-2.1-3.2l-3.2,2.2l2.1,3.1
		c-1,0.9-1.7,2.1-2.2,3.4l-3.4-0.7l-0.7,3.8l3.4,0.7c0,1.1,0.2,2.2,0.6,3.2l-3.1,2.1l2.2,3.2l2.9-1.9c1,1.1,2.3,2.1,3.7,2.7l-0.8,4
		l3.8,0.7l0.8-4c1.2,0,2.5-0.3,3.6-0.7l2.2,3.3l3.2-2.2l-2.2-3.2c1-1,1.9-2.1,2.4-3.5l3.4,0.7l0.7-3.8l-3.4-0.7
		c0-1.3-0.3-2.5-0.7-3.6l3.2-2.2l-2.2-3.2l-3.1,2.1C226.6,375,225.5,374.2,224.1,373.6z M219.5,387.2c-2.4-0.5-3.9-2.8-3.5-5.1
		c0.5-2.4,2.8-3.9,5.1-3.5c2.4,0.5,3.9,2.8,3.5,5.1C224.1,386.2,221.8,387.7,219.5,387.2z"/>
	<path class="st1" d="M193.6,345.7l1.1-5.7l-5.9-1.1l-1.1,5.7c-2,0-4,0.4-5.8,1.2l-3.2-4.8l-4.9,3.3l3.2,4.8
		c-1.5,1.4-2.6,3.2-3.4,5.1l-5.1-1l-1.1,5.9l5.1,1c0,1.7,0.3,3.4,0.9,5l-4.7,3.2l3.3,4.9l4.4-3c1.5,1.7,3.4,3.2,5.7,4.1l-1.2,6.1
		l5.9,1.1l1.2-6.1c1.9,0,3.7-0.4,5.5-1l3.4,5.1l4.9-3.3l-3.3-4.9c1.6-1.5,2.8-3.3,3.7-5.3l5.3,1l1.1-5.9l-5.3-1
		c0-1.9-0.4-3.8-1.1-5.5l4.9-3.3l-3.3-4.9l-4.7,3.2C197.5,347.8,195.7,346.5,193.6,345.7z M186.5,366.5c-3.6-0.7-6-4.2-5.3-7.9
		c0.7-3.6,4.2-6,7.9-5.3c3.6,0.7,6,4.2,5.3,7.9C193.6,364.9,190.1,367.2,186.5,366.5z"/>
</g>
<g id="rocket_ship" class="st2">
	<circle class="st10" cx="124.2" cy="90.7" r="47"/>
	<path class="st3" d="M124.3,109L124.3,109C124.3,109,124.3,109,124.3,109C124.3,109,124.3,109,124.3,109L124.3,109
		c-6.6,2.4-6,6.9-6,6.9c0.4,3.1,5.3,8.3,5.3,8.3l0.8,0.6v0l0,0l0,0v0l0.8-0.6c0,0,4.9-5.2,5.3-8.3
		C130.3,115.9,130.9,111.3,124.3,109z"/>
	<path class="st3" d="M124.3,109L124.3,109C124.3,109,124.3,109,124.3,109C124.3,109,124.3,109,124.3,109L124.3,109
		c-5.3,1.9-4.8,5.6-4.8,5.6c0.3,2.5,4.2,6.7,4.2,6.7l0.6,0.5v0l0,0l0,0v0l0.6-0.5c0,0,3.9-4.2,4.2-6.7
		C129.1,114.5,129.6,110.9,124.3,109z"/>
	<rect x="117" y="110.2" class="st3" width="14.3" height="0.9"/>
	<path class="st10" d="M127,58.1c-1-1.2-2-1.7-2.8-1.8v0c0,0,0,0,0,0c0,0,0,0,0,0v0c-0.8,0.1-1.8,0.6-2.8,1.8c0,0-4.5,5.2-7.4,15
		h10.2h0h10.2C131.5,63.3,127,58.1,127,58.1z"/>
	<path class="st3" d="M134.3,73l-10,0v0l-0.2,0l-0.2,0v0l-10,0c0,0-5,16.9,3,37.2h7h0.3h7C139.4,89.9,134.3,73,134.3,73z"/>
	<path class="st10" d="M116.7,108.9c0,0-5.3-3.6-8.1,6.4l-2-0.4c0,0,0-11.1,7.3-15L116.7,108.9z"/>
	<path class="st10" d="M131.6,109c0,0,5.3-3.6,8.1,6.4l2-0.4c0,0,0.1-11.1-7.2-15L131.6,109z"/>
	<path class="st10" d="M126.5,100h-2h-0.1v0h-0.1h-2c0,0,2.1,6.5,1.5,15h0.4v0h0.2v0h0.2v0h0.4C124.5,106.5,126.5,100,126.5,100z"/>
	<path class="st10" d="M124.3,75.8L124.3,75.8c-3.7,0.1-6.7,3.1-6.7,6.8s3,6.8,6.7,6.8v0c3.7-0.1,6.7-3.1,6.7-6.8
		S128.1,75.9,124.3,75.8z M124.3,86.4L124.3,86.4c-2-0.1-3.6-1.7-3.6-3.8s1.6-3.7,3.6-3.8v0c2,0.1,3.6,1.7,3.6,3.8
		S126.4,86.3,124.3,86.4z"/>
	<path class="st13" d="M84.3,229.5H58.8c0,0-11,0.8-11-11V157"/>
</g>
</svg>
