<?xml version="1.0" encoding="UTF-8"?>
<svg xmlns="http://www.w3.org/2000/svg" width="50" height="50">
  <g>
    <title>background</title>
    <rect fill="none" id="canvas_background" height="402" width="582" y="-1" x="-1"></rect>
  </g>
  <g>
    <path id="svg_1" fill="#3A5BA0" d="m45,1l-40,0c-2.2,0 -4,1.8 -4,4l0,40c0,2.2 1.8,4 4,4l40,0c2.2,0 4,-1.8 4,-4l0,-40c0,-2.2 -1.8,-4 -4,-4z"></path>
    <path id="f_1_" fill="#FFFFFF" d="m32,26l1,-5l-5,0l0,-4c0,-1.5 0.8,-2 3,-2l2,0l0,-5c0,0 -2,0 -4,0c-4.1,0 -7,2.4 -7,7l0,4l-5,0l0,5l5,0l0,14l6,0l0,-14l4,0z"></path>
  </g>
</svg>
